<?xml version="1.0" encoding="utf-8"?>
<!-- Generator: Adobe Illustrator 16.0.0, SVG Export Plug-In . SVG Version: 6.00 Build 0)  -->
<!DOCTYPE svg PUBLIC "-//W3C//DTD SVG 1.1//EN" "http://www.w3.org/Graphics/SVG/1.1/DTD/svg11.dtd">
<svg version="1.1" xmlns="http://www.w3.org/2000/svg" xmlns:xlink="http://www.w3.org/1999/xlink" x="0px" y="0px" width="300px"
	 height="150px" viewBox="0 0 300 150" enable-background="new 0 0 300 150" xml:space="preserve">
<g id="Layer_1">
	<g>
		<path fill="#305372" d="M74.717,2C60.083,2,47,6.322,35,13.735V33h13v7H35v30.508c0,8.129,4,12.191,13,12.191v6.049
			c-14,0-20-5.664-20-16.992V19.132C12,32.524,1.857,52.58,1.857,75.007c0,40.321,32.682,73.007,73.002,73.007
			c13.567,0,26.14-3.713,37.14-10.16v-8.443c-6,6.784-13.246,10.049-21.852,9.792c-7.522-0.255-13.953-3.168-19.245-8.735
			c-5.292-5.568-7.949-12.192-7.949-19.872c0-8,2.841-14.863,8.538-20.592c5.695-5.728,12.509-8.432,20.445-8.113
			c7.68,0.258,14.107,3.186,19.483,8.785C116.797,96.276,119,102.884,119,110.5v0.383v22.031c18-13.347,28.645-34.313,28.645-57.907
			C147.645,34.687,115.037,2,74.717,2z"/>
		<path fill="#305372" d="M91.409,88.995c-5.838,0-10.811,2.054-14.917,6.157c-4.105,4.105-6.19,9.077-6.253,14.914
			c-0.129,5.773,1.781,10.825,5.726,15.154c3.945,4.328,8.708,6.622,14.289,6.879c6.03,0.256,11.177-1.844,15.442-6.302
			s6.335-9.733,6.207-15.828c-0.129-5.772-2.181-10.712-6.159-14.817C101.766,91.049,96.989,88.995,91.409,88.995z"/>
	</g>
	<text transform="matrix(1 0 0 1 150 64.7192)"><tspan x="0" y="0" fill="#305372" font-family="'AbeatbyKai'" font-size="36">team</tspan><tspan x="0" y="43.2" fill="#305372" font-family="'AbeatbyKai'" font-size="36">awsome</tspan></text>
</g>
<g id="Layer_2">
</g>
</svg>
